<mxfile host="Electron" modified="2024-04-12T13:23:46.493Z" agent="Mozilla/5.0 (X11; Linux x86_64) AppleWebKit/537.36 (KHTML, like Gecko) draw.io/22.1.18 Chrome/120.0.6099.199 Electron/28.1.2 Safari/537.36" etag="84ldX9A7SyNJeUaNxFaD" version="22.1.18" type="device">
  <diagram name="Page-1" id="03018318-947c-dd8e-b7a3-06fadd420f32">
    <mxGraphModel dx="1434" dy="839" grid="1" gridSize="10" guides="1" tooltips="1" connect="1" arrows="1" fold="1" page="1" pageScale="1" pageWidth="1100" pageHeight="850" background="#ffffff" math="0" shadow="0">
      <root>
        <mxCell id="0" />
        <mxCell id="1" parent="0" />
        <mxCell id="ytZ_dzGZJoyVutZE7Bco-4" value="" style="rounded=0;whiteSpace=wrap;html=1;" parent="1" vertex="1">
          <mxGeometry x="85" y="20" width="635" height="410" as="geometry" />
        </mxCell>
        <mxCell id="677b7b8949515195-6" value="Телефон&amp;nbsp; &amp;nbsp; &amp;nbsp; О нас&amp;nbsp; &amp;nbsp; &amp;nbsp; &amp;nbsp;Наши услуги и цены" style="text;html=1;points=[];align=left;verticalAlign=top;spacingTop=-4;fontSize=14;fontFamily=Verdana" parent="1" vertex="1">
          <mxGeometry x="270" y="43" width="270" height="20" as="geometry" />
        </mxCell>
        <mxCell id="677b7b8949515195-7" value="Регистрация&amp;nbsp; &amp;nbsp; &amp;nbsp; Войти" style="text;html=1;points=[];align=left;verticalAlign=top;spacingTop=-4;fontSize=14;fontFamily=Verdana" parent="1" vertex="1">
          <mxGeometry x="560" y="43" width="140" height="20" as="geometry" />
        </mxCell>
        <mxCell id="ytZ_dzGZJoyVutZE7Bco-1" value="&lt;font style=&quot;font-size: 18px&quot;&gt;Название&lt;/font&gt;" style="text;html=1;strokeColor=none;fillColor=none;align=center;verticalAlign=middle;whiteSpace=wrap;rounded=0;" parent="1" vertex="1">
          <mxGeometry x="150" y="43" width="90" height="20" as="geometry" />
        </mxCell>
        <mxCell id="ytZ_dzGZJoyVutZE7Bco-5" value="" style="verticalLabelPosition=bottom;shadow=0;dashed=0;align=center;html=1;verticalAlign=top;strokeWidth=1;shape=mxgraph.mockup.graphics.simpleIcon;strokeColor=#999999;rounded=0;labelBackgroundColor=none;fontFamily=Verdana;fontSize=14;fontColor=#000000;comic=1;" parent="1" vertex="1">
          <mxGeometry x="100" y="28" width="50" height="50" as="geometry" />
        </mxCell>
        <mxCell id="ytZ_dzGZJoyVutZE7Bco-6" value="" style="endArrow=none;html=1;exitX=0;exitY=0.169;exitDx=0;exitDy=0;exitPerimeter=0;" parent="1" source="ytZ_dzGZJoyVutZE7Bco-4" edge="1">
          <mxGeometry width="50" height="50" relative="1" as="geometry">
            <mxPoint x="84.02000000000021" y="84.75999999999999" as="sourcePoint" />
            <mxPoint x="720" y="90" as="targetPoint" />
          </mxGeometry>
        </mxCell>
        <mxCell id="RmGO0GGN_Hj3ebjII3Na-1" value="" style="verticalLabelPosition=bottom;shadow=0;dashed=0;align=center;html=1;verticalAlign=top;strokeWidth=1;shape=mxgraph.mockup.graphics.simpleIcon;strokeColor=#999999;rounded=0;labelBackgroundColor=none;fontFamily=Verdana;fontSize=14;fontColor=#000000;comic=1;" parent="1" vertex="1">
          <mxGeometry x="100" y="100" width="600" height="280" as="geometry" />
        </mxCell>
        <mxCell id="nIzAAW4eLg7NAs6YeeBh-3" value="© 2024 Copyright: Парикмахерский салон &quot;Название&quot;" style="text;html=1;points=[];align=left;verticalAlign=top;spacingTop=-4;fontSize=14;fontFamily=Verdana" parent="1" vertex="1">
          <mxGeometry x="235" y="400" width="340" height="20" as="geometry" />
        </mxCell>
      </root>
    </mxGraphModel>
  </diagram>
</mxfile>
